<svg width="57" height="56" viewBox="0 0 57 56" fill="none" xmlns="http://www.w3.org/2000/svg">
<rect x="4.5" y="4" width="48" height="48" rx="24" fill="#FFE4E8"/>
<path d="M32.5 19.4678C33.9817 20.2041 35 21.7331 35 23.5C35 25.2669 33.9817 26.7959 32.5 27.5322M34.5 32.7664C36.0115 33.4503 37.3725 34.565 38.5 36M18.5 36C20.4465 33.5226 23.0892 32 26 32C28.9108 32 31.5535 33.5226 33.5 36M30.5 23.5C30.5 25.9853 28.4853 28 26 28C23.5147 28 21.5 25.9853 21.5 23.5C21.5 21.0147 23.5147 19 26 19C28.4853 19 30.5 21.0147 30.5 23.5Z" stroke="#C01048" stroke-width="2" stroke-linecap="round" stroke-linejoin="round"/>
<rect x="4.5" y="4" width="48" height="48" rx="24" stroke="#FFF1F3" stroke-width="8"/>
</svg>
